<svg xmlns="http://www.w3.org/2000/svg" viewBox="0 0 128 128">
  <defs>
    <linearGradient id="grad1" x1="0%" y1="0%" x2="100%" y2="100%">
      <stop offset="0%" style="stop-color:#667eea;stop-opacity:1" />
      <stop offset="100%" style="stop-color:#764ba2;stop-opacity:1" />
    </linearGradient>
  </defs>
  
  <rect width="128" height="128" rx="24" fill="url(#grad1)"/>
  
  <g transform="translate(64, 64)">
    <!-- Chat bubble -->
    <path d="M-30 -20 Q-30 -30 -20 -30 L20 -30 Q30 -30 30 -20 L30 10 Q30 20 20 20 L-10 20 L-20 30 L-20 20 Q-30 20 -30 10 Z" 
          fill="white" opacity="0.9"/>
    
    <!-- Export arrow -->
    <g transform="translate(0, -5)">
      <line x1="0" y1="15" x2="0" y2="-10" stroke="url(#grad1)" stroke-width="4" stroke-linecap="round"/>
      <polyline points="-8,-2 0,-10 8,-2" stroke="url(#grad1)" stroke-width="4" stroke-linecap="round" stroke-linejoin="round" fill="none"/>
    </g>
    
    <!-- Document lines -->
    <line x1="-15" y1="-10" x2="15" y2="-10" stroke="url(#grad1)" stroke-width="2" stroke-linecap="round" opacity="0.6"/>
    <line x1="-15" y1="-2" x2="10" y2="-2" stroke="url(#grad1)" stroke-width="2" stroke-linecap="round" opacity="0.6"/>
    <line x1="-15" y1="6" x2="12" y2="6" stroke="url(#grad1)" stroke-width="2" stroke-linecap="round" opacity="0.6"/>
  </g>
</svg>